# xmcd
#
# Track frame offsets: 
#        150
#        16785
#        35688
#        50323
#        67838
#        87559
#        102283
#        122943
#        141000
#        159236
#        175957
#        188838
#        203931
#        220110
#        237623
#        255954
#        272220
#        291912
#        308601
#        325610
#
# Disc length: 4568 seconds
#
# Revision: 0
# Processed by: cddbd v1.5.2PL0 Copyright (c) Steve Scherf et al.
# Submitted via: ExactAudioCopy v0.95b3
#
DISCID=1b11d614
DTITLE=Various Artist - HP200842
DYEAR=2008
DGENRE=Top 40
TTITLE0=Pussycat Dolls - I Hate This Part [LP Version]
TTITLE1=Beyonce - If I Were A Boy
TTITLE2=Beyonce - Single Ladies (Put A Ring On It)
TTITLE3=Plies - Put It On Ya
TTITLE4=Nelly - One And Only
TTITLE5=50 Cent - Get Up [Clean]
TTITLE6=Paul Wall feat Akon - Girl On Fire
TTITLE7=Pussycat Dolls feat R. Kelly - Out Of This Club
TTITLE8=Keyshia Cole feat 2Pac - Playa Cardz Right
TTITLE9=Ludacris feat T-Pain - One More Drink
TTITLE10=Jewel - 'Till It Feels Like Cheating [The 3:11 Radio Edit]
TTITLE11=Heidi Newfield - Cry Cry ('Til The Sun Shines)
TTITLE12=Crystal Shawanda - My Roots Are Showing
TTITLE13=Jamie O'Neal - Like A Woman [Radio Edit]
TTITLE14=Rev Theory - Light It Up [Radio Edit]
TTITLE15=Mudvayne - Do What You Do
TTITLE16=Paramore - Decode
TTITLE17=Katy Perry - I Kissed A Girl [Norman and Attalla Remix Radio 
TTITLE17=Edit]
TTITLE18=Nikka Costa - Stuck To You [Dave Aude Radio]
TTITLE19=Building 429 - End Of Me [AC Mix]
EXTD=
EXTT0=
EXTT1=
EXTT2=
EXTT3=
EXTT4=
EXTT5=
EXTT6=
EXTT7=
EXTT8=
EXTT9=
EXTT10=
EXTT11=
EXTT12=
EXTT13=
EXTT14=
EXTT15=
EXTT16=
EXTT17=
EXTT18=
EXTT19=
PLAYORDER=
